# Blender v2.78 (sub 0) OBJ File: ''
# www.blender.org
v 0.080000 0.000000 0.000000
v 0.078462 0.000000 -0.015606
v 0.073909 0.000000 -0.030614
v 0.066516 0.000000 -0.044445
v 0.056567 0.000000 -0.056567
v 0.044445 0.000000 -0.066516
v 0.030614 0.000000 -0.073909
v 0.015606 0.000000 -0.078462
v 0.000000 0.000000 -0.079998
v -0.015606 0.000000 -0.078462
v -0.030614 0.000000 -0.073909
v -0.044445 0.000000 -0.066516
v -0.056567 0.000000 -0.056567
v -0.066516 0.000000 -0.044445
v -0.073909 0.000000 -0.030614
v -0.078462 0.000000 -0.015606
v -0.079998 0.000000 0.000000
v -0.078462 0.000000 0.015606
v -0.073909 0.000000 0.030614
v -0.066516 0.000000 0.044445
v -0.056567 0.000000 0.056567
v -0.044445 0.000000 0.066516
v -0.030614 0.000000 0.073909
v -0.015606 0.000000 0.078462
v 0.000000 0.000000 0.079998
v 0.015606 0.000000 0.078462
v 0.030614 0.000000 0.073909
v 0.044445 0.000000 0.066516
v 0.056567 0.000000 0.056567
v 0.066516 0.000000 0.044445
v 0.073909 0.000000 0.030614
v 0.078462 0.000000 0.015606
v 0.080000 0.020000 0.000000
v 0.078462 0.020000 -0.015606
v 0.073909 0.020000 -0.030614
v 0.066516 0.020000 -0.044445
v 0.056567 0.020000 -0.056567
v 0.044445 0.020000 -0.066516
v 0.030614 0.020000 -0.073909
v 0.015606 0.020000 -0.078462
v 0.000000 0.020000 -0.079998
v -0.015606 0.020000 -0.078462
v -0.030614 0.020000 -0.073909
v -0.044445 0.020000 -0.066516
v -0.056567 0.020000 -0.056567
v -0.066516 0.020000 -0.044445
v -0.073909 0.020000 -0.030614
v -0.078462 0.020000 -0.015606
v -0.079998 0.020000 0.000000
v -0.078462 0.020000 0.015606
v -0.073909 0.020000 0.030614
v -0.066516 0.020000 0.044445
v -0.056567 0.020000 0.056567
v -0.044445 0.020000 0.066516
v -0.030614 0.020000 0.073909
v -0.015606 0.020000 0.078462
v 0.000000 0.020000 0.079998
v 0.015606 0.020000 0.078462
v 0.030614 0.020000 0.073909
v 0.044445 0.020000 0.066516
v 0.056567 0.020000 0.056567
v 0.066516 0.020000 0.044445
v 0.073909 0.020000 0.030614
v 0.078462 0.020000 0.015606
v 0.010000 0.000000 0.000000
v 0.009808 0.000000 -0.001951
v 0.009239 0.000000 -0.003827
v 0.008315 0.000000 -0.005556
v 0.007071 0.000000 -0.007071
v 0.005556 0.000000 -0.008315
v 0.003827 0.000000 -0.009239
v 0.001951 0.000000 -0.009808
v 0.000000 0.000000 -0.010000
v -0.001951 0.000000 -0.009808
v -0.003827 0.000000 -0.009239
v -0.005556 0.000000 -0.008315
v -0.007071 0.000000 -0.007071
v -0.008315 0.000000 -0.005556
v -0.009239 0.000000 -0.003827
v -0.009808 0.000000 -0.001951
v -0.010000 0.000000 0.000000
v -0.009808 0.000000 0.001951
v -0.009239 0.000000 0.003827
v -0.008315 0.000000 0.005556
v -0.007071 0.000000 0.007071
v -0.005556 0.000000 0.008315
v -0.003827 0.000000 0.009239
v -0.001951 0.000000 0.009808
v 0.000000 0.000000 0.010000
v 0.001951 0.000000 0.009808
v 0.003827 0.000000 0.009239
v 0.005556 0.000000 0.008315
v 0.007071 0.000000 0.007071
v 0.008315 0.000000 0.005556
v 0.009239 0.000000 0.003827
v 0.009808 0.000000 0.001951
v 0.010000 0.020000 0.000000
v 0.009808 0.020000 -0.001951
v 0.009239 0.020000 -0.003827
v 0.008315 0.020000 -0.005556
v 0.007071 0.020000 -0.007071
v 0.005556 0.020000 -0.008315
v 0.003827 0.020000 -0.009239
v 0.001951 0.020000 -0.009808
v 0.000000 0.020000 -0.010000
v -0.001951 0.020000 -0.009808
v -0.003827 0.020000 -0.009239
v -0.005556 0.020000 -0.008315
v -0.007071 0.020000 -0.007071
v -0.008315 0.020000 -0.005556
v -0.009239 0.020000 -0.003827
v -0.009808 0.020000 -0.001951
v -0.010000 0.020000 0.000000
v -0.009808 0.020000 0.001951
v -0.009239 0.020000 0.003827
v -0.008315 0.020000 0.005556
v -0.007071 0.020000 0.007071
v -0.005556 0.020000 0.008315
v -0.003827 0.020000 0.009239
v -0.001951 0.020000 0.009808
v 0.000000 0.020000 0.010000
v 0.001951 0.020000 0.009808
v 0.003827 0.020000 0.009239
v 0.005556 0.020000 0.008315
v 0.007071 0.020000 0.007071
v 0.008315 0.020000 0.005556
v 0.009239 0.020000 0.003827
v 0.009808 0.020000 0.001951
vn -0.7730 0.0000 0.6344
vn 0.2903 0.0000 -0.9569
vn -0.6344 0.0000 0.7730
vn 0.0979 0.0000 -0.9952
vn -0.4714 0.0000 0.8819
vn -0.0979 0.0000 -0.9952
vn -0.2903 0.0000 0.9569
vn -0.2903 0.0000 -0.9569
vn -0.0979 0.0000 0.9952
vn -0.4714 0.0000 -0.8819
vn 0.0979 0.0000 0.9952
vn -0.6344 0.0000 -0.7730
vn 0.2903 0.0000 0.9569
vn -0.7730 0.0000 -0.6344
vn 0.4714 0.0000 0.8819
vn -0.8819 0.0000 -0.4714
vn 0.9952 0.0000 -0.0981
vn 0.6344 0.0000 0.7730
vn -0.9569 0.0000 -0.2903
vn 0.9569 0.0000 -0.2903
vn 0.7730 0.0000 0.6344
vn -0.9952 0.0000 -0.0979
vn 0.8819 0.0000 -0.4714
vn 0.8819 0.0000 0.4714
vn -0.9952 0.0000 0.0979
vn 0.7730 0.0000 -0.6344
vn 0.9569 0.0000 0.2903
vn -0.9569 0.0000 0.2903
vn 0.6344 0.0000 -0.7730
vn 0.9952 0.0000 0.0981
vn -0.8819 0.0000 0.4714
vn 0.4714 0.0000 -0.8819
vn -0.0980 0.0000 0.9952
vn 0.0980 0.0000 0.9952
vn 0.0980 0.0000 -0.9952
vn -0.0980 0.0000 -0.9952
vn -0.9952 0.0000 0.0980
vn 0.9952 0.0000 0.0980
vn 0.9952 0.0000 -0.0980
vn -0.9952 0.0000 -0.0980
vn 0.0000 -1.0000 0.0000
vn 0.0000 1.0000 0.0000
s off
f 21//1 52//1 20//1
f 8//2 39//2 7//2
f 22//3 53//3 21//3
f 9//4 40//4 8//4
f 23//5 54//5 22//5
f 10//6 41//6 9//6
f 24//7 55//7 23//7
f 11//8 42//8 10//8
f 25//9 56//9 24//9
f 12//10 43//10 11//10
f 26//11 57//11 25//11
f 13//12 44//12 12//12
f 27//13 58//13 26//13
f 14//14 45//14 13//14
f 28//15 59//15 27//15
f 15//16 46//16 14//16
f 2//17 33//17 1//17
f 29//18 60//18 28//18
f 16//19 47//19 15//19
f 3//20 34//20 2//20
f 30//21 61//21 29//21
f 17//22 48//22 16//22
f 4//23 35//23 3//23
f 31//24 62//24 30//24
f 18//25 49//25 17//25
f 5//26 36//26 4//26
f 32//27 63//27 31//27
f 19//28 50//28 18//28
f 6//29 37//29 5//29
f 1//30 64//30 32//30
f 20//31 51//31 19//31
f 7//32 38//32 6//32
f 116//26 85//26 84//26
f 103//7 72//7 71//7
f 117//29 86//29 85//29
f 104//33 73//33 72//33
f 118//32 87//32 86//32
f 105//34 74//34 73//34
f 119//2 88//2 87//2
f 106//13 75//13 74//13
f 120//35 89//35 88//35
f 107//15 76//15 75//15
f 121//36 90//36 89//36
f 108//18 77//18 76//18
f 122//8 91//8 90//8
f 109//21 78//21 77//21
f 123//10 92//10 91//10
f 110//24 79//24 78//24
f 97//37 66//37 65//37
f 124//12 93//12 92//12
f 111//27 80//27 79//27
f 98//28 67//28 66//28
f 125//14 94//14 93//14
f 112//38 81//38 80//38
f 99//31 68//31 67//31
f 126//16 95//16 94//16
f 113//39 82//39 81//39
f 100//1 69//1 68//1
f 127//19 96//19 95//19
f 114//20 83//20 82//20
f 101//3 70//3 69//3
f 128//40 65//40 96//40
f 115//23 84//23 83//23
f 102//5 71//5 70//5
f 2//41 65//41 66//41
f 3//41 66//41 67//41
f 4//41 67//41 68//41
f 5//41 68//41 69//41
f 5//41 70//41 6//41
f 6//41 71//41 7//41
f 7//41 72//41 8//41
f 9//41 72//41 73//41
f 9//41 74//41 10//41
f 11//41 74//41 75//41
f 11//41 76//41 12//41
f 13//41 76//41 77//41
f 13//41 78//41 14//41
f 14//41 79//41 15//41
f 15//41 80//41 16//41
f 17//41 80//41 81//41
f 17//41 82//41 18//41
f 19//41 82//41 83//41
f 20//41 83//41 84//41
f 21//41 84//41 85//41
f 21//41 86//41 22//41
f 23//41 86//41 87//41
f 23//41 88//41 24//41
f 25//41 88//41 89//41
f 25//41 90//41 26//41
f 27//41 90//41 91//41
f 27//41 92//41 28//41
f 29//41 92//41 93//41
f 29//41 94//41 30//41
f 31//41 94//41 95//41
f 31//41 96//41 32//41
f 32//41 65//41 1//41
f 34//42 97//42 33//42
f 35//42 98//42 34//42
f 35//42 100//42 99//42
f 37//42 100//42 36//42
f 37//42 102//42 101//42
f 39//42 102//42 38//42
f 39//42 104//42 103//42
f 41//42 104//42 40//42
f 41//42 106//42 105//42
f 43//42 106//42 42//42
f 43//42 108//42 107//42
f 45//42 108//42 44//42
f 45//42 110//42 109//42
f 47//42 110//42 46//42
f 47//42 112//42 111//42
f 49//42 112//42 48//42
f 49//42 114//42 113//42
f 51//42 114//42 50//42
f 52//42 115//42 51//42
f 53//42 116//42 52//42
f 53//42 118//42 117//42
f 55//42 118//42 54//42
f 55//42 120//42 119//42
f 57//42 120//42 56//42
f 57//42 122//42 121//42
f 59//42 122//42 58//42
f 60//42 123//42 59//42
f 61//42 124//42 60//42
f 61//42 126//42 125//42
f 63//42 126//42 62//42
f 63//42 128//42 127//42
f 64//42 97//42 128//42
f 21//1 53//1 52//1
f 8//2 40//2 39//2
f 22//3 54//3 53//3
f 9//4 41//4 40//4
f 23//5 55//5 54//5
f 10//6 42//6 41//6
f 24//7 56//7 55//7
f 11//8 43//8 42//8
f 25//9 57//9 56//9
f 12//10 44//10 43//10
f 26//11 58//11 57//11
f 13//12 45//12 44//12
f 27//13 59//13 58//13
f 14//14 46//14 45//14
f 28//15 60//15 59//15
f 15//16 47//16 46//16
f 2//17 34//17 33//17
f 29//18 61//18 60//18
f 16//19 48//19 47//19
f 3//20 35//20 34//20
f 30//21 62//21 61//21
f 17//22 49//22 48//22
f 4//23 36//23 35//23
f 31//24 63//24 62//24
f 18//25 50//25 49//25
f 5//26 37//26 36//26
f 32//27 64//27 63//27
f 19//28 51//28 50//28
f 6//29 38//29 37//29
f 1//30 33//30 64//30
f 20//31 52//31 51//31
f 7//32 39//32 38//32
f 116//26 117//26 85//26
f 103//7 104//7 72//7
f 117//29 118//29 86//29
f 104//33 105//33 73//33
f 118//32 119//32 87//32
f 105//34 106//34 74//34
f 119//2 120//2 88//2
f 106//13 107//13 75//13
f 120//35 121//35 89//35
f 107//15 108//15 76//15
f 121//36 122//36 90//36
f 108//18 109//18 77//18
f 122//8 123//8 91//8
f 109//21 110//21 78//21
f 123//10 124//10 92//10
f 110//24 111//24 79//24
f 97//37 98//37 66//37
f 124//12 125//12 93//12
f 111//27 112//27 80//27
f 98//28 99//28 67//28
f 125//14 126//14 94//14
f 112//38 113//38 81//38
f 99//31 100//31 68//31
f 126//16 127//16 95//16
f 113//39 114//39 82//39
f 100//1 101//1 69//1
f 127//19 128//19 96//19
f 114//20 115//20 83//20
f 101//3 102//3 70//3
f 128//40 97//40 65//40
f 115//23 116//23 84//23
f 102//5 103//5 71//5
f 2//41 1//41 65//41
f 3//41 2//41 66//41
f 4//41 3//41 67//41
f 5//41 4//41 68//41
f 5//41 69//41 70//41
f 6//41 70//41 71//41
f 7//41 71//41 72//41
f 9//41 8//41 72//41
f 9//41 73//41 74//41
f 11//41 10//41 74//41
f 11//41 75//41 76//41
f 13//41 12//41 76//41
f 13//41 77//41 78//41
f 14//41 78//41 79//41
f 15//41 79//41 80//41
f 17//41 16//41 80//41
f 17//41 81//41 82//41
f 19//41 18//41 82//41
f 20//41 19//41 83//41
f 21//41 20//41 84//41
f 21//41 85//41 86//41
f 23//41 22//41 86//41
f 23//41 87//41 88//41
f 25//41 24//41 88//41
f 25//41 89//41 90//41
f 27//41 26//41 90//41
f 27//41 91//41 92//41
f 29//41 28//41 92//41
f 29//41 93//41 94//41
f 31//41 30//41 94//41
f 31//41 95//41 96//41
f 32//41 96//41 65//41
f 34//42 98//42 97//42
f 35//42 99//42 98//42
f 35//42 36//42 100//42
f 37//42 101//42 100//42
f 37//42 38//42 102//42
f 39//42 103//42 102//42
f 39//42 40//42 104//42
f 41//42 105//42 104//42
f 41//42 42//42 106//42
f 43//42 107//42 106//42
f 43//42 44//42 108//42
f 45//42 109//42 108//42
f 45//42 46//42 110//42
f 47//42 111//42 110//42
f 47//42 48//42 112//42
f 49//42 113//42 112//42
f 49//42 50//42 114//42
f 51//42 115//42 114//42
f 52//42 116//42 115//42
f 53//42 117//42 116//42
f 53//42 54//42 118//42
f 55//42 119//42 118//42
f 55//42 56//42 120//42
f 57//42 121//42 120//42
f 57//42 58//42 122//42
f 59//42 123//42 122//42
f 60//42 124//42 123//42
f 61//42 125//42 124//42
f 61//42 62//42 126//42
f 63//42 127//42 126//42
f 63//42 64//42 128//42
f 64//42 33//42 97//42
