# Blender v2.78 (sub 0) OBJ File: ''
# www.blender.org
v 0.060000 0.000000 0.000000
v 0.058847 0.000000 -0.011705
v 0.055432 0.000000 -0.022960
v 0.049887 0.000000 -0.033334
v 0.042425 0.000000 -0.042425
v 0.033334 0.000000 -0.049887
v 0.022960 0.000000 -0.055432
v 0.011705 0.000000 -0.058847
v 0.000000 0.000000 -0.059998
v -0.011705 0.000000 -0.058847
v -0.022960 0.000000 -0.055432
v -0.033334 0.000000 -0.049887
v -0.042425 0.000000 -0.042425
v -0.049887 0.000000 -0.033334
v -0.055432 0.000000 -0.022960
v -0.058847 0.000000 -0.011705
v -0.059998 0.000000 0.000000
v -0.058847 0.000000 0.011705
v -0.055432 0.000000 0.022960
v -0.049887 0.000000 0.033334
v -0.042425 0.000000 0.042425
v -0.033334 0.000000 0.049887
v -0.022960 0.000000 0.055432
v -0.011705 0.000000 0.058847
v 0.000000 0.000000 0.059998
v 0.011705 0.000000 0.058847
v 0.022960 0.000000 0.055432
v 0.033334 0.000000 0.049887
v 0.042425 0.000000 0.042425
v 0.049887 0.000000 0.033334
v 0.055432 0.000000 0.022960
v 0.058847 0.000000 0.011705
v 0.060000 0.020000 0.000000
v 0.058847 0.020000 -0.011705
v 0.055432 0.020000 -0.022960
v 0.049887 0.020000 -0.033334
v 0.042425 0.020000 -0.042425
v 0.033334 0.020000 -0.049887
v 0.022960 0.020000 -0.055432
v 0.011705 0.020000 -0.058847
v 0.000000 0.020000 -0.059998
v -0.011705 0.020000 -0.058847
v -0.022960 0.020000 -0.055432
v -0.033334 0.020000 -0.049887
v -0.042425 0.020000 -0.042425
v -0.049887 0.020000 -0.033334
v -0.055432 0.020000 -0.022960
v -0.058847 0.020000 -0.011705
v -0.059998 0.020000 0.000000
v -0.058847 0.020000 0.011705
v -0.055432 0.020000 0.022960
v -0.049887 0.020000 0.033334
v -0.042425 0.020000 0.042425
v -0.033334 0.020000 0.049887
v -0.022960 0.020000 0.055432
v -0.011705 0.020000 0.058847
v 0.000000 0.020000 0.059998
v 0.011705 0.020000 0.058847
v 0.022960 0.020000 0.055432
v 0.033334 0.020000 0.049887
v 0.042425 0.020000 0.042425
v 0.049887 0.020000 0.033334
v 0.055432 0.020000 0.022960
v 0.058847 0.020000 0.011705
v 0.010000 0.000000 0.000000
v 0.009808 0.000000 -0.001951
v 0.009239 0.000000 -0.003827
v 0.008315 0.000000 -0.005556
v 0.007071 0.000000 -0.007071
v 0.005556 0.000000 -0.008315
v 0.003827 0.000000 -0.009239
v 0.001951 0.000000 -0.009808
v 0.000000 0.000000 -0.010000
v -0.001951 0.000000 -0.009808
v -0.003827 0.000000 -0.009239
v -0.005556 0.000000 -0.008315
v -0.007071 0.000000 -0.007071
v -0.008315 0.000000 -0.005556
v -0.009239 0.000000 -0.003827
v -0.009808 0.000000 -0.001951
v -0.010000 0.000000 0.000000
v -0.009808 0.000000 0.001951
v -0.009239 0.000000 0.003827
v -0.008315 0.000000 0.005556
v -0.007071 0.000000 0.007071
v -0.005556 0.000000 0.008315
v -0.003827 0.000000 0.009239
v -0.001951 0.000000 0.009808
v 0.000000 0.000000 0.010000
v 0.001951 0.000000 0.009808
v 0.003827 0.000000 0.009239
v 0.005556 0.000000 0.008315
v 0.007071 0.000000 0.007071
v 0.008315 0.000000 0.005556
v 0.009239 0.000000 0.003827
v 0.009808 0.000000 0.001951
v 0.010000 0.020000 0.000000
v 0.009808 0.020000 -0.001951
v 0.009239 0.020000 -0.003827
v 0.008315 0.020000 -0.005556
v 0.007071 0.020000 -0.007071
v 0.005556 0.020000 -0.008315
v 0.003827 0.020000 -0.009239
v 0.001951 0.020000 -0.009808
v 0.000000 0.020000 -0.010000
v -0.001951 0.020000 -0.009808
v -0.003827 0.020000 -0.009239
v -0.005556 0.020000 -0.008315
v -0.007071 0.020000 -0.007071
v -0.008315 0.020000 -0.005556
v -0.009239 0.020000 -0.003827
v -0.009808 0.020000 -0.001951
v -0.010000 0.020000 0.000000
v -0.009808 0.020000 0.001951
v -0.009239 0.020000 0.003827
v -0.008315 0.020000 0.005556
v -0.007071 0.020000 0.007071
v -0.005556 0.020000 0.008315
v -0.003827 0.020000 0.009239
v -0.001951 0.020000 0.009808
v 0.000000 0.020000 0.010000
v 0.001951 0.020000 0.009808
v 0.003827 0.020000 0.009239
v 0.005556 0.020000 0.008315
v 0.007071 0.020000 0.007071
v 0.008315 0.020000 0.005556
v 0.009239 0.020000 0.003827
v 0.009808 0.020000 0.001951
vn -0.6344 0.0000 -0.7730
vn 0.2903 0.0000 0.9569
vn -0.7730 0.0000 -0.6344
vn 0.4714 0.0000 0.8819
vn -0.8819 0.0000 -0.4714
vn 0.9952 0.0000 -0.0981
vn 0.6344 0.0000 0.7730
vn -0.9569 0.0000 -0.2903
vn 0.9569 0.0000 -0.2903
vn 0.7730 0.0000 0.6344
vn -0.9952 0.0000 -0.0979
vn 0.8819 0.0000 -0.4714
vn 0.8819 0.0000 0.4714
vn -0.9952 0.0000 0.0979
vn 0.7730 0.0000 -0.6344
vn 0.9569 0.0000 0.2903
vn -0.9569 0.0000 0.2903
vn 0.6344 0.0000 -0.7730
vn 0.9952 0.0000 0.0981
vn -0.8819 0.0000 0.4714
vn 0.4714 0.0000 -0.8819
vn -0.7730 0.0000 0.6344
vn 0.2903 0.0000 -0.9569
vn -0.6344 0.0000 0.7730
vn 0.0979 0.0000 -0.9952
vn -0.4714 0.0000 0.8819
vn -0.0979 0.0000 -0.9952
vn -0.2903 0.0000 0.9569
vn -0.2903 0.0000 -0.9569
vn -0.0979 0.0000 0.9952
vn -0.4714 0.0000 -0.8819
vn 0.0979 0.0000 0.9952
vn -0.9952 0.0000 0.0980
vn 0.9952 0.0000 0.0980
vn 0.9952 0.0000 -0.0980
vn -0.9952 0.0000 -0.0980
vn -0.0980 0.0000 0.9952
vn 0.0980 0.0000 0.9952
vn 0.0980 0.0000 -0.9952
vn -0.0980 0.0000 -0.9952
vn 0.0000 -1.0000 0.0000
vn 0.0000 1.0000 -0.0000
s off
f 13//1 44//1 12//1
f 27//2 58//2 26//2
f 14//3 45//3 13//3
f 28//4 59//4 27//4
f 15//5 46//5 14//5
f 2//6 33//6 1//6
f 29//7 60//7 28//7
f 16//8 47//8 15//8
f 3//9 34//9 2//9
f 30//10 61//10 29//10
f 17//11 48//11 16//11
f 4//12 35//12 3//12
f 31//13 62//13 30//13
f 18//14 49//14 17//14
f 5//15 36//15 4//15
f 32//16 63//16 31//16
f 19//17 50//17 18//17
f 6//18 37//18 5//18
f 1//19 64//19 32//19
f 20//20 51//20 19//20
f 7//21 38//21 6//21
f 21//22 52//22 20//22
f 8//23 39//23 7//23
f 22//24 53//24 21//24
f 9//25 40//25 8//25
f 23//26 54//26 22//26
f 10//27 41//27 9//27
f 24//28 55//28 23//28
f 11//29 42//29 10//29
f 25//30 56//30 24//30
f 12//31 43//31 11//31
f 26//32 57//32 25//32
f 108//7 77//7 76//7
f 122//29 91//29 90//29
f 109//10 78//10 77//10
f 123//31 92//31 91//31
f 110//13 79//13 78//13
f 97//33 66//33 65//33
f 124//1 93//1 92//1
f 111//16 80//16 79//16
f 98//17 67//17 66//17
f 125//3 94//3 93//3
f 112//34 81//34 80//34
f 99//20 68//20 67//20
f 126//5 95//5 94//5
f 113//35 82//35 81//35
f 100//22 69//22 68//22
f 127//8 96//8 95//8
f 114//9 83//9 82//9
f 101//24 70//24 69//24
f 128//36 65//36 96//36
f 115//12 84//12 83//12
f 102//26 71//26 70//26
f 116//15 85//15 84//15
f 103//28 72//28 71//28
f 117//18 86//18 85//18
f 104//37 73//37 72//37
f 118//21 87//21 86//21
f 105//38 74//38 73//38
f 119//23 88//23 87//23
f 106//2 75//2 74//2
f 120//39 89//39 88//39
f 107//4 76//4 75//4
f 121//40 90//40 89//40
f 2//41 65//41 66//41
f 3//41 66//41 67//41
f 3//41 68//41 4//41
f 5//41 68//41 69//41
f 5//41 70//41 6//41
f 7//41 70//41 71//41
f 7//41 72//41 8//41
f 9//41 72//41 73//41
f 9//41 74//41 10//41
f 11//41 74//41 75//41
f 11//41 76//41 12//41
f 13//41 76//41 77//41
f 13//41 78//41 14//41
f 14//41 79//41 15//41
f 15//41 80//41 16//41
f 17//41 80//41 81//41
f 17//41 82//41 18//41
f 19//41 82//41 83//41
f 19//41 84//41 20//41
f 21//41 84//41 85//41
f 21//41 86//41 22//41
f 23//41 86//41 87//41
f 23//41 88//41 24//41
f 25//41 88//41 89//41
f 25//41 90//41 26//41
f 27//41 90//41 91//41
f 27//41 92//41 28//41
f 29//41 92//41 93//41
f 29//41 94//41 30//41
f 30//41 95//41 31//41
f 31//41 96//41 32//41
f 32//41 65//41 1//41
f 34//42 97//42 33//42
f 35//42 98//42 34//42
f 36//42 99//42 35//42
f 37//42 100//42 36//42
f 37//42 102//42 101//42
f 39//42 102//42 38//42
f 39//42 104//42 103//42
f 41//42 104//42 40//42
f 41//42 106//42 105//42
f 43//42 106//42 42//42
f 43//42 108//42 107//42
f 45//42 108//42 44//42
f 45//42 110//42 109//42
f 47//42 110//42 46//42
f 47//42 112//42 111//42
f 49//42 112//42 48//42
f 49//42 114//42 113//42
f 51//42 114//42 50//42
f 51//42 116//42 115//42
f 53//42 116//42 52//42
f 53//42 118//42 117//42
f 55//42 118//42 54//42
f 55//42 120//42 119//42
f 57//42 120//42 56//42
f 57//42 122//42 121//42
f 59//42 122//42 58//42
f 59//42 124//42 123//42
f 61//42 124//42 60//42
f 61//42 126//42 125//42
f 63//42 126//42 62//42
f 63//42 128//42 127//42
f 64//42 97//42 128//42
f 13//1 45//1 44//1
f 27//2 59//2 58//2
f 14//3 46//3 45//3
f 28//4 60//4 59//4
f 15//5 47//5 46//5
f 2//6 34//6 33//6
f 29//7 61//7 60//7
f 16//8 48//8 47//8
f 3//9 35//9 34//9
f 30//10 62//10 61//10
f 17//11 49//11 48//11
f 4//12 36//12 35//12
f 31//13 63//13 62//13
f 18//14 50//14 49//14
f 5//15 37//15 36//15
f 32//16 64//16 63//16
f 19//17 51//17 50//17
f 6//18 38//18 37//18
f 1//19 33//19 64//19
f 20//20 52//20 51//20
f 7//21 39//21 38//21
f 21//22 53//22 52//22
f 8//23 40//23 39//23
f 22//24 54//24 53//24
f 9//25 41//25 40//25
f 23//26 55//26 54//26
f 10//27 42//27 41//27
f 24//28 56//28 55//28
f 11//29 43//29 42//29
f 25//30 57//30 56//30
f 12//31 44//31 43//31
f 26//32 58//32 57//32
f 108//7 109//7 77//7
f 122//29 123//29 91//29
f 109//10 110//10 78//10
f 123//31 124//31 92//31
f 110//13 111//13 79//13
f 97//33 98//33 66//33
f 124//1 125//1 93//1
f 111//16 112//16 80//16
f 98//17 99//17 67//17
f 125//3 126//3 94//3
f 112//34 113//34 81//34
f 99//20 100//20 68//20
f 126//5 127//5 95//5
f 113//35 114//35 82//35
f 100//22 101//22 69//22
f 127//8 128//8 96//8
f 114//9 115//9 83//9
f 101//24 102//24 70//24
f 128//36 97//36 65//36
f 115//12 116//12 84//12
f 102//26 103//26 71//26
f 116//15 117//15 85//15
f 103//28 104//28 72//28
f 117//18 118//18 86//18
f 104//37 105//37 73//37
f 118//21 119//21 87//21
f 105//38 106//38 74//38
f 119//23 120//23 88//23
f 106//2 107//2 75//2
f 120//39 121//39 89//39
f 107//4 108//4 76//4
f 121//40 122//40 90//40
f 2//41 1//41 65//41
f 3//41 2//41 66//41
f 3//41 67//41 68//41
f 5//41 4//41 68//41
f 5//41 69//41 70//41
f 7//41 6//41 70//41
f 7//41 71//41 72//41
f 9//41 8//41 72//41
f 9//41 73//41 74//41
f 11//41 10//41 74//41
f 11//41 75//41 76//41
f 13//41 12//41 76//41
f 13//41 77//41 78//41
f 14//41 78//41 79//41
f 15//41 79//41 80//41
f 17//41 16//41 80//41
f 17//41 81//41 82//41
f 19//41 18//41 82//41
f 19//41 83//41 84//41
f 21//41 20//41 84//41
f 21//41 85//41 86//41
f 23//41 22//41 86//41
f 23//41 87//41 88//41
f 25//41 24//41 88//41
f 25//41 89//41 90//41
f 27//41 26//41 90//41
f 27//41 91//41 92//41
f 29//41 28//41 92//41
f 29//41 93//41 94//41
f 30//41 94//41 95//41
f 31//41 95//41 96//41
f 32//41 96//41 65//41
f 34//42 98//42 97//42
f 35//42 99//42 98//42
f 36//42 100//42 99//42
f 37//42 101//42 100//42
f 37//42 38//42 102//42
f 39//42 103//42 102//42
f 39//42 40//42 104//42
f 41//42 105//42 104//42
f 41//42 42//42 106//42
f 43//42 107//42 106//42
f 43//42 44//42 108//42
f 45//42 109//42 108//42
f 45//42 46//42 110//42
f 47//42 111//42 110//42
f 47//42 48//42 112//42
f 49//42 113//42 112//42
f 49//42 50//42 114//42
f 51//42 115//42 114//42
f 51//42 52//42 116//42
f 53//42 117//42 116//42
f 53//42 54//42 118//42
f 55//42 119//42 118//42
f 55//42 56//42 120//42
f 57//42 121//42 120//42
f 57//42 58//42 122//42
f 59//42 123//42 122//42
f 59//42 60//42 124//42
f 61//42 125//42 124//42
f 61//42 62//42 126//42
f 63//42 127//42 126//42
f 63//42 64//42 128//42
f 64//42 33//42 97//42
