# Blender v2.78 (sub 0) OBJ File: ''
# www.blender.org
v 0.080000 0.000000 0.000000
v 0.078462 0.000000 -0.015606
v 0.073909 0.000000 -0.030614
v 0.066516 0.000000 -0.044445
v 0.056567 0.000000 -0.056567
v 0.044445 0.000000 -0.066516
v 0.030614 0.000000 -0.073909
v 0.015606 0.000000 -0.078462
v 0.000000 0.000000 -0.079998
v -0.015606 0.000000 -0.078462
v -0.030614 0.000000 -0.073909
v -0.044445 0.000000 -0.066516
v -0.056567 0.000000 -0.056567
v -0.066516 0.000000 -0.044445
v -0.073909 0.000000 -0.030614
v -0.078462 0.000000 -0.015606
v -0.079998 0.000000 0.000000
v -0.078462 0.000000 0.015606
v -0.073909 0.000000 0.030614
v -0.066516 0.000000 0.044445
v -0.056567 0.000000 0.056567
v -0.044445 0.000000 0.066516
v -0.030614 0.000000 0.073909
v -0.015606 0.000000 0.078462
v 0.000000 0.000000 0.079998
v 0.015606 0.000000 0.078462
v 0.030614 0.000000 0.073909
v 0.044445 0.000000 0.066516
v 0.056567 0.000000 0.056567
v 0.066516 0.000000 0.044445
v 0.073909 0.000000 0.030614
v 0.078462 0.000000 0.015606
v 0.080000 0.020000 0.000000
v 0.078462 0.020000 -0.015606
v 0.073909 0.020000 -0.030614
v 0.066516 0.020000 -0.044445
v 0.056567 0.020000 -0.056567
v 0.044445 0.020000 -0.066516
v 0.030614 0.020000 -0.073909
v 0.015606 0.020000 -0.078462
v 0.000000 0.020000 -0.079998
v -0.015606 0.020000 -0.078462
v -0.030614 0.020000 -0.073909
v -0.044445 0.020000 -0.066516
v -0.056567 0.020000 -0.056567
v -0.066516 0.020000 -0.044445
v -0.073909 0.020000 -0.030614
v -0.078462 0.020000 -0.015606
v -0.079998 0.020000 0.000000
v -0.078462 0.020000 0.015606
v -0.073909 0.020000 0.030614
v -0.066516 0.020000 0.044445
v -0.056567 0.020000 0.056567
v -0.044445 0.020000 0.066516
v -0.030614 0.020000 0.073909
v -0.015606 0.020000 0.078462
v 0.000000 0.020000 0.079998
v 0.015606 0.020000 0.078462
v 0.030614 0.020000 0.073909
v 0.044445 0.020000 0.066516
v 0.056567 0.020000 0.056567
v 0.066516 0.020000 0.044445
v 0.073909 0.020000 0.030614
v 0.078462 0.020000 0.015606
v 0.010000 0.000000 0.000000
v 0.009808 0.000000 -0.001951
v 0.009239 0.000000 -0.003827
v 0.008315 0.000000 -0.005556
v 0.007071 0.000000 -0.007071
v 0.005556 0.000000 -0.008315
v 0.003827 0.000000 -0.009239
v 0.001951 0.000000 -0.009808
v 0.000000 0.000000 -0.010000
v -0.001951 0.000000 -0.009808
v -0.003827 0.000000 -0.009239
v -0.005556 0.000000 -0.008315
v -0.007071 0.000000 -0.007071
v -0.008315 0.000000 -0.005556
v -0.009239 0.000000 -0.003827
v -0.009808 0.000000 -0.001951
v -0.010000 0.000000 0.000000
v -0.009808 0.000000 0.001951
v -0.009239 0.000000 0.003827
v -0.008315 0.000000 0.005556
v -0.007071 0.000000 0.007071
v -0.005556 0.000000 0.008315
v -0.003827 0.000000 0.009239
v -0.001951 0.000000 0.009808
v 0.000000 0.000000 0.010000
v 0.001951 0.000000 0.009808
v 0.003827 0.000000 0.009239
v 0.005556 0.000000 0.008315
v 0.007071 0.000000 0.007071
v 0.008315 0.000000 0.005556
v 0.009239 0.000000 0.003827
v 0.009808 0.000000 0.001951
v 0.010000 0.020000 0.000000
v 0.009808 0.020000 -0.001951
v 0.009239 0.020000 -0.003827
v 0.008315 0.020000 -0.005556
v 0.007071 0.020000 -0.007071
v 0.005556 0.020000 -0.008315
v 0.003827 0.020000 -0.009239
v 0.001951 0.020000 -0.009808
v 0.000000 0.020000 -0.010000
v -0.001951 0.020000 -0.009808
v -0.003827 0.020000 -0.009239
v -0.005556 0.020000 -0.008315
v -0.007071 0.020000 -0.007071
v -0.008315 0.020000 -0.005556
v -0.009239 0.020000 -0.003827
v -0.009808 0.020000 -0.001951
v -0.010000 0.020000 0.000000
v -0.009808 0.020000 0.001951
v -0.009239 0.020000 0.003827
v -0.008315 0.020000 0.005556
v -0.007071 0.020000 0.007071
v -0.005556 0.020000 0.008315
v -0.003827 0.020000 0.009239
v -0.001951 0.020000 0.009808
v 0.000000 0.020000 0.010000
v 0.001951 0.020000 0.009808
v 0.003827 0.020000 0.009239
v 0.005556 0.020000 0.008315
v 0.007071 0.020000 0.007071
v 0.008315 0.020000 0.005556
v 0.009239 0.020000 0.003827
v 0.009808 0.020000 0.001951
vn -0.4044 -0.6857 -0.6052
vn -0.2785 0.6857 -0.6724
vn -0.2785 -0.6857 -0.6724
vn 0.1420 -0.6857 0.7139
vn 0.0000 0.6857 0.7279
vn 0.0000 -0.6857 0.7279
vn -0.5147 -0.6857 -0.5147
vn -0.4044 0.6857 -0.6052
vn 0.2785 -0.6857 0.6724
vn 0.1420 0.6857 0.7139
vn -0.6052 -0.6857 -0.4044
vn -0.5147 0.6857 -0.5147
vn 0.4044 -0.6857 0.6052
vn 0.2785 0.6857 0.6724
vn -0.6724 -0.6857 -0.2785
vn -0.6052 0.6857 -0.4044
vn 0.7139 -0.6857 -0.1420
vn 0.7279 0.6857 0.0000
vn 0.7279 -0.6857 0.0000
vn 0.5147 -0.6857 0.5147
vn 0.4044 0.6857 0.6052
vn -0.7139 -0.6857 -0.1420
vn -0.6724 0.6857 -0.2785
vn 0.6724 -0.6857 -0.2785
vn 0.7139 0.6857 -0.1420
vn 0.6052 -0.6857 0.4044
vn 0.5147 0.6857 0.5147
vn -0.7279 -0.6857 0.0000
vn -0.7139 0.6857 -0.1420
vn 0.6052 -0.6857 -0.4044
vn 0.6724 0.6857 -0.2785
vn 0.6724 -0.6857 0.2785
vn 0.6052 0.6857 0.4044
vn -0.7139 -0.6857 0.1420
vn -0.7279 0.6857 0.0000
vn 0.5147 -0.6857 -0.5147
vn 0.6052 0.6857 -0.4044
vn 0.7139 -0.6857 0.1420
vn 0.6724 0.6857 0.2785
vn -0.6724 -0.6857 0.2785
vn -0.7139 0.6857 0.1420
vn 0.4044 -0.6857 -0.6052
vn 0.5147 0.6857 -0.5147
vn 0.7139 0.6857 0.1420
vn -0.6052 -0.6857 0.4044
vn -0.6724 0.6857 0.2785
vn 0.2785 -0.6857 -0.6724
vn 0.4044 0.6857 -0.6052
vn -0.5147 -0.6857 0.5147
vn -0.6052 0.6857 0.4044
vn 0.1420 -0.6857 -0.7139
vn 0.2785 0.6857 -0.6724
vn -0.4044 -0.6857 0.6052
vn -0.5147 0.6857 0.5147
vn 0.0000 -0.6857 -0.7279
vn 0.1420 0.6857 -0.7139
vn -0.2785 -0.6857 0.6724
vn -0.4044 0.6857 0.6052
vn -0.1420 -0.6857 -0.7139
vn 0.0000 0.6857 -0.7279
vn -0.1420 -0.6857 0.7139
vn -0.2785 0.6857 0.6724
vn -0.1420 0.6857 -0.7139
vn -0.1420 0.6857 0.7139
vn 0.2616 0.7298 0.6316
vn 0.3798 -0.7298 0.5684
vn 0.2616 -0.7298 0.6316
vn 0.0000 0.7298 -0.6836
vn -0.1334 -0.7298 -0.6705
vn 0.0000 -0.7298 -0.6836
vn 0.3798 0.7298 0.5684
vn 0.4834 -0.7298 0.4834
vn -0.1334 0.7298 -0.6705
vn -0.2616 -0.7298 -0.6316
vn 0.4834 0.7298 0.4834
vn 0.5684 -0.7298 0.3798
vn -0.2616 0.7298 -0.6316
vn -0.3798 -0.7298 -0.5684
vn 0.5684 0.7298 0.3798
vn 0.6316 -0.7298 0.2616
vn -0.6836 0.7298 0.0000
vn -0.6705 -0.7298 0.1333
vn -0.6836 -0.7298 0.0000
vn -0.3798 0.7298 -0.5684
vn -0.4834 -0.7298 -0.4834
vn 0.6316 0.7298 0.2616
vn 0.6705 -0.7298 0.1333
vn -0.6705 0.7298 0.1333
vn -0.6316 -0.7298 0.2616
vn -0.4834 0.7298 -0.4834
vn -0.5684 -0.7298 -0.3798
vn 0.6705 0.7298 0.1333
vn 0.6836 -0.7298 0.0000
vn -0.6316 0.7298 0.2616
vn -0.5684 -0.7298 0.3798
vn -0.5684 0.7298 -0.3798
vn -0.6316 -0.7298 -0.2616
vn 0.6836 0.7298 0.0000
vn 0.6705 -0.7298 -0.1333
vn -0.5684 0.7298 0.3798
vn -0.4834 -0.7298 0.4834
vn -0.6316 0.7298 -0.2616
vn -0.6705 -0.7298 -0.1333
vn 0.6705 0.7298 -0.1333
vn 0.6316 -0.7298 -0.2616
vn -0.4834 0.7298 0.4834
vn -0.3798 -0.7298 0.5684
vn -0.6705 0.7298 -0.1333
vn 0.6316 0.7298 -0.2616
vn 0.5684 -0.7298 -0.3798
vn -0.3798 0.7298 0.5684
vn -0.2616 -0.7298 0.6316
vn 0.5684 0.7298 -0.3798
vn 0.4834 -0.7298 -0.4834
vn -0.2616 0.7298 0.6316
vn -0.1333 -0.7298 0.6705
vn 0.4834 0.7298 -0.4834
vn 0.3798 -0.7298 -0.5684
vn -0.1333 0.7298 0.6705
vn 0.0000 -0.7298 0.6836
vn 0.3798 0.7298 -0.5684
vn 0.2616 -0.7298 -0.6316
vn 0.0000 0.7298 0.6836
vn 0.1333 -0.7298 0.6705
vn 0.2616 0.7298 -0.6316
vn 0.1333 -0.7298 -0.6705
vn 0.1333 0.7298 0.6705
vn 0.1333 0.7298 -0.6705
s 1
f 12//1 43//2 11//3
f 26//4 57//5 25//6
f 13//7 44//8 12//1
f 27//9 58//10 26//4
f 14//11 45//12 13//7
f 28//13 59//14 27//9
f 15//15 46//16 14//11
f 2//17 33//18 1//19
f 29//20 60//21 28//13
f 16//22 47//23 15//15
f 3//24 34//25 2//17
f 30//26 61//27 29//20
f 17//28 48//29 16//22
f 4//30 35//31 3//24
f 31//32 62//33 30//26
f 18//34 49//35 17//28
f 5//36 36//37 4//30
f 32//38 63//39 31//32
f 19//40 50//41 18//34
f 6//42 37//43 5//36
f 1//19 64//44 32//38
f 20//45 51//46 19//40
f 7//47 38//48 6//42
f 21//49 52//50 20//45
f 8//51 39//52 7//47
f 22//53 53//54 21//49
f 9//55 40//56 8//51
f 23//57 54//58 22//53
f 10//59 41//60 9//55
f 24//61 55//62 23//57
f 11//3 42//63 10//59
f 25//6 56//64 24//61
f 107//65 76//66 75//67
f 121//68 90//69 89//70
f 108//71 77//72 76//66
f 122//73 91//74 90//69
f 109//75 78//76 77//72
f 123//77 92//78 91//74
f 110//79 79//80 78//76
f 97//81 66//82 65//83
f 124//84 93//85 92//78
f 111//86 80//87 79//80
f 98//88 67//89 66//82
f 125//90 94//91 93//85
f 112//92 81//93 80//87
f 99//94 68//95 67//89
f 126//96 95//97 94//91
f 113//98 82//99 81//93
f 100//100 69//101 68//95
f 127//102 96//103 95//97
f 114//104 83//105 82//99
f 101//106 70//107 69//101
f 128//108 65//83 96//103
f 115//109 84//110 83//105
f 102//111 71//112 70//107
f 116//113 85//114 84//110
f 103//115 72//116 71//112
f 117//117 86//118 85//114
f 104//119 73//120 72//116
f 118//121 87//122 86//118
f 105//123 74//124 73//120
f 119//125 88//126 87//122
f 106//127 75//67 74//124
f 120//128 89//70 88//126
f 2//17 65//83 66//82
f 3//24 66//82 67//89
f 4//30 67//89 68//95
f 5//36 68//95 69//101
f 5//36 70//107 6//42
f 6//42 71//112 7//47
f 7//47 72//116 8//51
f 9//55 72//116 73//120
f 9//55 74//124 10//59
f 11//3 74//124 75//67
f 11//3 76//66 12//1
f 13//7 76//66 77//72
f 13//7 78//76 14//11
f 14//11 79//80 15//15
f 15//15 80//87 16//22
f 17//28 80//87 81//93
f 17//28 82//99 18//34
f 19//40 82//99 83//105
f 20//45 83//105 84//110
f 21//49 84//110 85//114
f 21//49 86//118 22//53
f 23//57 86//118 87//122
f 23//57 88//126 24//61
f 25//6 88//126 89//70
f 25//6 90//69 26//4
f 27//9 90//69 91//74
f 27//9 92//78 28//13
f 29//20 92//78 93//85
f 29//20 94//91 30//26
f 31//32 94//91 95//97
f 31//32 96//103 32//38
f 32//38 65//83 1//19
f 34//25 97//81 33//18
f 35//31 98//88 34//25
f 35//31 100//100 99//94
f 37//43 100//100 36//37
f 37//43 102//111 101//106
f 39//52 102//111 38//48
f 39//52 104//119 103//115
f 41//60 104//119 40//56
f 41//60 106//127 105//123
f 43//2 106//127 42//63
f 43//2 108//71 107//65
f 45//12 108//71 44//8
f 45//12 110//79 109//75
f 47//23 110//79 46//16
f 47//23 112//92 111//86
f 49//35 112//92 48//29
f 49//35 114//104 113//98
f 51//46 114//104 50//41
f 52//50 115//109 51//46
f 53//54 116//113 52//50
f 53//54 118//121 117//117
f 55//62 118//121 54//58
f 55//62 120//128 119//125
f 57//5 120//128 56//64
f 57//5 122//73 121//68
f 59//14 122//73 58//10
f 60//21 123//77 59//14
f 61//27 124//84 60//21
f 61//27 126//96 125//90
f 63//39 126//96 62//33
f 63//39 128//108 127//102
f 64//44 97//81 128//108
f 12//1 44//8 43//2
f 26//4 58//10 57//5
f 13//7 45//12 44//8
f 27//9 59//14 58//10
f 14//11 46//16 45//12
f 28//13 60//21 59//14
f 15//15 47//23 46//16
f 2//17 34//25 33//18
f 29//20 61//27 60//21
f 16//22 48//29 47//23
f 3//24 35//31 34//25
f 30//26 62//33 61//27
f 17//28 49//35 48//29
f 4//30 36//37 35//31
f 31//32 63//39 62//33
f 18//34 50//41 49//35
f 5//36 37//43 36//37
f 32//38 64//44 63//39
f 19//40 51//46 50//41
f 6//42 38//48 37//43
f 1//19 33//18 64//44
f 20//45 52//50 51//46
f 7//47 39//52 38//48
f 21//49 53//54 52//50
f 8//51 40//56 39//52
f 22//53 54//58 53//54
f 9//55 41//60 40//56
f 23//57 55//62 54//58
f 10//59 42//63 41//60
f 24//61 56//64 55//62
f 11//3 43//2 42//63
f 25//6 57//5 56//64
f 107//65 108//71 76//66
f 121//68 122//73 90//69
f 108//71 109//75 77//72
f 122//73 123//77 91//74
f 109//75 110//79 78//76
f 123//77 124//84 92//78
f 110//79 111//86 79//80
f 97//81 98//88 66//82
f 124//84 125//90 93//85
f 111//86 112//92 80//87
f 98//88 99//94 67//89
f 125//90 126//96 94//91
f 112//92 113//98 81//93
f 99//94 100//100 68//95
f 126//96 127//102 95//97
f 113//98 114//104 82//99
f 100//100 101//106 69//101
f 127//102 128//108 96//103
f 114//104 115//109 83//105
f 101//106 102//111 70//107
f 128//108 97//81 65//83
f 115//109 116//113 84//110
f 102//111 103//115 71//112
f 116//113 117//117 85//114
f 103//115 104//119 72//116
f 117//117 118//121 86//118
f 104//119 105//123 73//120
f 118//121 119//125 87//122
f 105//123 106//127 74//124
f 119//125 120//128 88//126
f 106//127 107//65 75//67
f 120//128 121//68 89//70
f 2//17 1//19 65//83
f 3//24 2//17 66//82
f 4//30 3//24 67//89
f 5//36 4//30 68//95
f 5//36 69//101 70//107
f 6//42 70//107 71//112
f 7//47 71//112 72//116
f 9//55 8//51 72//116
f 9//55 73//120 74//124
f 11//3 10//59 74//124
f 11//3 75//67 76//66
f 13//7 12//1 76//66
f 13//7 77//72 78//76
f 14//11 78//76 79//80
f 15//15 79//80 80//87
f 17//28 16//22 80//87
f 17//28 81//93 82//99
f 19//40 18//34 82//99
f 20//45 19//40 83//105
f 21//49 20//45 84//110
f 21//49 85//114 86//118
f 23//57 22//53 86//118
f 23//57 87//122 88//126
f 25//6 24//61 88//126
f 25//6 89//70 90//69
f 27//9 26//4 90//69
f 27//9 91//74 92//78
f 29//20 28//13 92//78
f 29//20 93//85 94//91
f 31//32 30//26 94//91
f 31//32 95//97 96//103
f 32//38 96//103 65//83
f 34//25 98//88 97//81
f 35//31 99//94 98//88
f 35//31 36//37 100//100
f 37//43 101//106 100//100
f 37//43 38//48 102//111
f 39//52 103//115 102//111
f 39//52 40//56 104//119
f 41//60 105//123 104//119
f 41//60 42//63 106//127
f 43//2 107//65 106//127
f 43//2 44//8 108//71
f 45//12 109//75 108//71
f 45//12 46//16 110//79
f 47//23 111//86 110//79
f 47//23 48//29 112//92
f 49//35 113//98 112//92
f 49//35 50//41 114//104
f 51//46 115//109 114//104
f 52//50 116//113 115//109
f 53//54 117//117 116//113
f 53//54 54//58 118//121
f 55//62 119//125 118//121
f 55//62 56//64 120//128
f 57//5 121//68 120//128
f 57//5 58//10 122//73
f 59//14 123//77 122//73
f 60//21 124//84 123//77
f 61//27 125//90 124//84
f 61//27 62//33 126//96
f 63//39 127//102 126//96
f 63//39 64//44 128//108
f 64//44 33//18 97//81
