# Blender v2.78 (sub 0) OBJ File: ''
# www.blender.org
v 0.070000 0.000000 0.000000
v 0.068654 0.000000 -0.013655
v 0.064670 0.000000 -0.026787
v 0.058201 0.000000 -0.038889
v 0.049496 0.000000 -0.049496
v 0.038889 0.000000 -0.058201
v 0.026787 0.000000 -0.064670
v 0.013655 0.000000 -0.068654
v 0.000000 0.000000 -0.069998
v -0.013655 0.000000 -0.068654
v -0.026787 0.000000 -0.064670
v -0.038889 0.000000 -0.058201
v -0.049496 0.000000 -0.049496
v -0.058201 0.000000 -0.038889
v -0.064670 0.000000 -0.026787
v -0.068654 0.000000 -0.013655
v -0.069998 0.000000 0.000000
v -0.068654 0.000000 0.013655
v -0.064670 0.000000 0.026787
v -0.058201 0.000000 0.038889
v -0.049496 0.000000 0.049496
v -0.038889 0.000000 0.058201
v -0.026787 0.000000 0.064670
v -0.013655 0.000000 0.068654
v 0.000000 0.000000 0.069998
v 0.013655 0.000000 0.068654
v 0.026787 0.000000 0.064670
v 0.038889 0.000000 0.058201
v 0.049496 0.000000 0.049496
v 0.058201 0.000000 0.038889
v 0.064670 0.000000 0.026787
v 0.068654 0.000000 0.013655
v 0.070000 0.020000 0.000000
v 0.068654 0.020000 -0.013655
v 0.064670 0.020000 -0.026787
v 0.058201 0.020000 -0.038889
v 0.049496 0.020000 -0.049496
v 0.038889 0.020000 -0.058201
v 0.026787 0.020000 -0.064670
v 0.013655 0.020000 -0.068654
v 0.000000 0.020000 -0.069998
v -0.013655 0.020000 -0.068654
v -0.026787 0.020000 -0.064670
v -0.038889 0.020000 -0.058201
v -0.049496 0.020000 -0.049496
v -0.058201 0.020000 -0.038889
v -0.064670 0.020000 -0.026787
v -0.068654 0.020000 -0.013655
v -0.069998 0.020000 0.000000
v -0.068654 0.020000 0.013655
v -0.064670 0.020000 0.026787
v -0.058201 0.020000 0.038889
v -0.049496 0.020000 0.049496
v -0.038889 0.020000 0.058201
v -0.026787 0.020000 0.064670
v -0.013655 0.020000 0.068654
v 0.000000 0.020000 0.069998
v 0.013655 0.020000 0.068654
v 0.026787 0.020000 0.064670
v 0.038889 0.020000 0.058201
v 0.049496 0.020000 0.049496
v 0.058201 0.020000 0.038889
v 0.064670 0.020000 0.026787
v 0.068654 0.020000 0.013655
v 0.010000 0.000000 0.000000
v 0.009808 0.000000 -0.001951
v 0.009239 0.000000 -0.003827
v 0.008315 0.000000 -0.005556
v 0.007071 0.000000 -0.007071
v 0.005556 0.000000 -0.008315
v 0.003827 0.000000 -0.009239
v 0.001951 0.000000 -0.009808
v 0.000000 0.000000 -0.010000
v -0.001951 0.000000 -0.009808
v -0.003827 0.000000 -0.009239
v -0.005556 0.000000 -0.008315
v -0.007071 0.000000 -0.007071
v -0.008315 0.000000 -0.005556
v -0.009239 0.000000 -0.003827
v -0.009808 0.000000 -0.001951
v -0.010000 0.000000 0.000000
v -0.009808 0.000000 0.001951
v -0.009239 0.000000 0.003827
v -0.008315 0.000000 0.005556
v -0.007071 0.000000 0.007071
v -0.005556 0.000000 0.008315
v -0.003827 0.000000 0.009239
v -0.001951 0.000000 0.009808
v 0.000000 0.000000 0.010000
v 0.001951 0.000000 0.009808
v 0.003827 0.000000 0.009239
v 0.005556 0.000000 0.008315
v 0.007071 0.000000 0.007071
v 0.008315 0.000000 0.005556
v 0.009239 0.000000 0.003827
v 0.009808 0.000000 0.001951
v 0.010000 0.020000 0.000000
v 0.009808 0.020000 -0.001951
v 0.009239 0.020000 -0.003827
v 0.008315 0.020000 -0.005556
v 0.007071 0.020000 -0.007071
v 0.005556 0.020000 -0.008315
v 0.003827 0.020000 -0.009239
v 0.001951 0.020000 -0.009808
v 0.000000 0.020000 -0.010000
v -0.001951 0.020000 -0.009808
v -0.003827 0.020000 -0.009239
v -0.005556 0.020000 -0.008315
v -0.007071 0.020000 -0.007071
v -0.008315 0.020000 -0.005556
v -0.009239 0.020000 -0.003827
v -0.009808 0.020000 -0.001951
v -0.010000 0.020000 0.000000
v -0.009808 0.020000 0.001951
v -0.009239 0.020000 0.003827
v -0.008315 0.020000 0.005556
v -0.007071 0.020000 0.007071
v -0.005556 0.020000 0.008315
v -0.003827 0.020000 0.009239
v -0.001951 0.020000 0.009808
v 0.000000 0.020000 0.010000
v 0.001951 0.020000 0.009808
v 0.003827 0.020000 0.009239
v 0.005556 0.020000 0.008315
v 0.007071 0.020000 0.007071
v 0.008315 0.020000 0.005556
v 0.009239 0.020000 0.003827
v 0.009808 0.020000 0.001951
vn -0.7139 -0.6857 0.1420
vn -0.7279 0.6857 0.0000
vn -0.7279 -0.6857 0.0000
vn 0.5147 -0.6857 -0.5147
vn 0.6052 0.6857 -0.4044
vn 0.6052 -0.6857 -0.4044
vn 0.7139 -0.6857 0.1420
vn 0.6724 0.6857 0.2785
vn 0.6724 -0.6857 0.2785
vn -0.6724 -0.6857 0.2785
vn -0.7139 0.6857 0.1420
vn 0.4044 -0.6857 -0.6052
vn 0.5147 0.6857 -0.5147
vn 0.7279 -0.6857 0.0000
vn 0.7139 0.6857 0.1420
vn -0.6052 -0.6857 0.4044
vn -0.6724 0.6857 0.2785
vn 0.2785 -0.6857 -0.6724
vn 0.4044 0.6857 -0.6052
vn -0.5147 -0.6857 0.5147
vn -0.6052 0.6857 0.4044
vn 0.1420 -0.6857 -0.7139
vn 0.2785 0.6857 -0.6724
vn -0.4044 -0.6857 0.6052
vn -0.5147 0.6857 0.5147
vn 0.0000 -0.6857 -0.7279
vn 0.1420 0.6857 -0.7139
vn -0.2785 -0.6857 0.6724
vn -0.4044 0.6857 0.6052
vn -0.1420 -0.6857 -0.7139
vn 0.0000 0.6857 -0.7279
vn -0.1420 -0.6857 0.7139
vn -0.2785 0.6857 0.6724
vn -0.2785 -0.6857 -0.6724
vn -0.1420 0.6857 -0.7139
vn 0.0000 -0.6857 0.7279
vn -0.1420 0.6857 0.7139
vn -0.4044 -0.6857 -0.6052
vn -0.2785 0.6857 -0.6724
vn 0.1420 -0.6857 0.7139
vn 0.0000 0.6857 0.7279
vn -0.5147 -0.6857 -0.5147
vn -0.4044 0.6857 -0.6052
vn 0.2785 -0.6857 0.6724
vn 0.1420 0.6857 0.7139
vn -0.6052 -0.6857 -0.4044
vn -0.5147 0.6857 -0.5147
vn 0.4044 -0.6857 0.6052
vn 0.2785 0.6857 0.6724
vn -0.6724 -0.6857 -0.2785
vn -0.6052 0.6857 -0.4044
vn 0.7139 -0.6857 -0.1420
vn 0.7279 0.6857 0.0000
vn 0.5147 -0.6857 0.5147
vn 0.4044 0.6857 0.6052
vn -0.7139 -0.6857 -0.1420
vn -0.6724 0.6857 -0.2785
vn 0.6724 -0.6857 -0.2785
vn 0.7139 0.6857 -0.1420
vn 0.6052 -0.6857 0.4044
vn 0.5147 0.6857 0.5147
vn -0.7139 0.6857 -0.1420
vn 0.6724 0.6857 -0.2785
vn 0.6052 0.6857 0.4044
vn 0.6836 0.7298 0.0000
vn 0.6705 -0.7298 -0.1333
vn 0.6836 -0.7298 0.0000
vn -0.5684 0.7298 0.3798
vn -0.4834 -0.7298 0.4834
vn -0.5684 -0.7298 0.3798
vn -0.6316 0.7298 -0.2616
vn -0.6705 -0.7298 -0.1333
vn -0.6316 -0.7298 -0.2616
vn 0.6705 0.7298 -0.1334
vn 0.6316 -0.7298 -0.2616
vn -0.4834 0.7298 0.4834
vn -0.3798 -0.7298 0.5684
vn -0.6705 0.7298 -0.1333
vn -0.6836 -0.7298 0.0000
vn 0.6316 0.7298 -0.2616
vn 0.5684 -0.7298 -0.3798
vn -0.3798 0.7298 0.5684
vn -0.2616 -0.7298 0.6316
vn 0.5684 0.7298 -0.3798
vn 0.4834 -0.7298 -0.4834
vn -0.2616 0.7298 0.6316
vn -0.1333 -0.7298 0.6705
vn 0.4834 0.7298 -0.4834
vn 0.3798 -0.7298 -0.5684
vn -0.1333 0.7298 0.6705
vn 0.0000 -0.7298 0.6836
vn 0.3798 0.7298 -0.5684
vn 0.2616 -0.7298 -0.6316
vn 0.0000 0.7298 0.6836
vn 0.1333 -0.7298 0.6705
vn 0.2616 0.7298 -0.6316
vn 0.1333 -0.7298 -0.6705
vn 0.1333 0.7298 0.6705
vn 0.2616 -0.7298 0.6316
vn 0.1333 0.7298 -0.6705
vn 0.0000 -0.7298 -0.6836
vn 0.2616 0.7298 0.6316
vn 0.3798 -0.7298 0.5684
vn 0.0000 0.7298 -0.6836
vn -0.1334 -0.7298 -0.6705
vn 0.3798 0.7298 0.5684
vn 0.4834 -0.7298 0.4834
vn -0.1334 0.7298 -0.6705
vn -0.2616 -0.7298 -0.6316
vn 0.4834 0.7298 0.4834
vn 0.5684 -0.7298 0.3798
vn -0.2616 0.7298 -0.6316
vn -0.3798 -0.7298 -0.5684
vn 0.5684 0.7298 0.3798
vn 0.6316 -0.7298 0.2616
vn -0.6836 0.7298 0.0000
vn -0.6705 -0.7298 0.1333
vn -0.3798 0.7298 -0.5684
vn -0.4834 -0.7298 -0.4834
vn 0.6316 0.7298 0.2616
vn 0.6705 -0.7298 0.1333
vn -0.6705 0.7298 0.1333
vn -0.6316 -0.7298 0.2616
vn -0.4834 0.7298 -0.4834
vn -0.5684 -0.7298 -0.3798
vn 0.6705 0.7298 0.1333
vn -0.6316 0.7298 0.2616
vn -0.5684 0.7298 -0.3798
s 1
f 18//1 49//2 17//3
f 5//4 36//5 4//6
f 32//7 63//8 31//9
f 19//10 50//11 18//1
f 6//12 37//13 5//4
f 1//14 64//15 32//7
f 20//16 51//17 19//10
f 7//18 38//19 6//12
f 21//20 52//21 20//16
f 8//22 39//23 7//18
f 22//24 53//25 21//20
f 9//26 40//27 8//22
f 23//28 54//29 22//24
f 10//30 41//31 9//26
f 24//32 55//33 23//28
f 11//34 42//35 10//30
f 25//36 56//37 24//32
f 12//38 43//39 11//34
f 26//40 57//41 25//36
f 13//42 44//43 12//38
f 27//44 58//45 26//40
f 14//46 45//47 13//42
f 28//48 59//49 27//44
f 15//50 46//51 14//46
f 2//52 33//53 1//14
f 29//54 60//55 28//48
f 16//56 47//57 15//50
f 3//58 34//59 2//52
f 30//60 61//61 29//54
f 17//3 48//62 16//56
f 4//6 35//63 3//58
f 31//9 62//64 30//60
f 113//65 82//66 81//67
f 100//68 69//69 68//70
f 127//71 96//72 95//73
f 114//74 83//75 82//66
f 101//76 70//77 69//69
f 128//78 65//79 96//72
f 115//80 84//81 83//75
f 102//82 71//83 70//77
f 116//84 85//85 84//81
f 103//86 72//87 71//83
f 117//88 86//89 85//85
f 104//90 73//91 72//87
f 118//92 87//93 86//89
f 105//94 74//95 73//91
f 119//96 88//97 87//93
f 106//98 75//99 74//95
f 120//100 89//101 88//97
f 107//102 76//103 75//99
f 121//104 90//105 89//101
f 108//106 77//107 76//103
f 122//108 91//109 90//105
f 109//110 78//111 77//107
f 123//112 92//113 91//109
f 110//114 79//115 78//111
f 97//116 66//117 65//79
f 124//118 93//119 92//113
f 111//120 80//121 79//115
f 98//122 67//123 66//117
f 125//124 94//125 93//119
f 112//126 81//67 80//121
f 99//127 68//70 67//123
f 126//128 95//73 94//125
f 2//52 65//79 66//117
f 3//58 66//117 67//123
f 3//58 68//70 4//6
f 5//4 68//70 69//69
f 5//4 70//77 6//12
f 7//18 70//77 71//83
f 7//18 72//87 8//22
f 9//26 72//87 73//91
f 9//26 74//95 10//30
f 11//34 74//95 75//99
f 11//34 76//103 12//38
f 13//42 76//103 77//107
f 13//42 78//111 14//46
f 15//50 78//111 79//115
f 15//50 80//121 16//56
f 17//3 80//121 81//67
f 17//3 82//66 18//1
f 19//10 82//66 83//75
f 19//10 84//81 20//16
f 21//20 84//81 85//85
f 21//20 86//89 22//24
f 23//28 86//89 87//93
f 23//28 88//97 24//32
f 25//36 88//97 89//101
f 25//36 90//105 26//40
f 27//44 90//105 91//109
f 27//44 92//113 28//48
f 29//54 92//113 93//119
f 29//54 94//125 30//60
f 30//60 95//73 31//9
f 31//9 96//72 32//7
f 32//7 65//79 1//14
f 34//59 97//116 33//53
f 35//63 98//122 34//59
f 35//63 100//68 99//127
f 37//13 100//68 36//5
f 37//13 102//82 101//76
f 39//23 102//82 38//19
f 39//23 104//90 103//86
f 41//31 104//90 40//27
f 41//31 106//98 105//94
f 43//39 106//98 42//35
f 43//39 108//106 107//102
f 45//47 108//106 44//43
f 45//47 110//114 109//110
f 46//51 111//120 110//114
f 47//57 112//126 111//120
f 49//2 112//126 48//62
f 49//2 114//74 113//65
f 51//17 114//74 50//11
f 51//17 116//84 115//80
f 53//25 116//84 52//21
f 53//25 118//92 117//88
f 55//33 118//92 54//29
f 55//33 120//100 119//96
f 57//41 120//100 56//37
f 57//41 122//108 121//104
f 59//49 122//108 58//45
f 59//49 124//118 123//112
f 61//61 124//118 60//55
f 61//61 126//128 125//124
f 63//8 126//128 62//64
f 63//8 128//78 127//71
f 64//15 97//116 128//78
f 18//1 50//11 49//2
f 5//4 37//13 36//5
f 32//7 64//15 63//8
f 19//10 51//17 50//11
f 6//12 38//19 37//13
f 1//14 33//53 64//15
f 20//16 52//21 51//17
f 7//18 39//23 38//19
f 21//20 53//25 52//21
f 8//22 40//27 39//23
f 22//24 54//29 53//25
f 9//26 41//31 40//27
f 23//28 55//33 54//29
f 10//30 42//35 41//31
f 24//32 56//37 55//33
f 11//34 43//39 42//35
f 25//36 57//41 56//37
f 12//38 44//43 43//39
f 26//40 58//45 57//41
f 13//42 45//47 44//43
f 27//44 59//49 58//45
f 14//46 46//51 45//47
f 28//48 60//55 59//49
f 15//50 47//57 46//51
f 2//52 34//59 33//53
f 29//54 61//61 60//55
f 16//56 48//62 47//57
f 3//58 35//63 34//59
f 30//60 62//64 61//61
f 17//3 49//2 48//62
f 4//6 36//5 35//63
f 31//9 63//8 62//64
f 113//65 114//74 82//66
f 100//68 101//76 69//69
f 127//71 128//78 96//72
f 114//74 115//80 83//75
f 101//76 102//82 70//77
f 128//78 97//116 65//79
f 115//80 116//84 84//81
f 102//82 103//86 71//83
f 116//84 117//88 85//85
f 103//86 104//90 72//87
f 117//88 118//92 86//89
f 104//90 105//94 73//91
f 118//92 119//96 87//93
f 105//94 106//98 74//95
f 119//96 120//100 88//97
f 106//98 107//102 75//99
f 120//100 121//104 89//101
f 107//102 108//106 76//103
f 121//104 122//108 90//105
f 108//106 109//110 77//107
f 122//108 123//112 91//109
f 109//110 110//114 78//111
f 123//112 124//118 92//113
f 110//114 111//120 79//115
f 97//116 98//122 66//117
f 124//118 125//124 93//119
f 111//120 112//126 80//121
f 98//122 99//127 67//123
f 125//124 126//128 94//125
f 112//126 113//65 81//67
f 99//127 100//68 68//70
f 126//128 127//71 95//73
f 2//52 1//14 65//79
f 3//58 2//52 66//117
f 3//58 67//123 68//70
f 5//4 4//6 68//70
f 5//4 69//69 70//77
f 7//18 6//12 70//77
f 7//18 71//83 72//87
f 9//26 8//22 72//87
f 9//26 73//91 74//95
f 11//34 10//30 74//95
f 11//34 75//99 76//103
f 13//42 12//38 76//103
f 13//42 77//107 78//111
f 15//50 14//46 78//111
f 15//50 79//115 80//121
f 17//3 16//56 80//121
f 17//3 81//67 82//66
f 19//10 18//1 82//66
f 19//10 83//75 84//81
f 21//20 20//16 84//81
f 21//20 85//85 86//89
f 23//28 22//24 86//89
f 23//28 87//93 88//97
f 25//36 24//32 88//97
f 25//36 89//101 90//105
f 27//44 26//40 90//105
f 27//44 91//109 92//113
f 29//54 28//48 92//113
f 29//54 93//119 94//125
f 30//60 94//125 95//73
f 31//9 95//73 96//72
f 32//7 96//72 65//79
f 34//59 98//122 97//116
f 35//63 99//127 98//122
f 35//63 36//5 100//68
f 37//13 101//76 100//68
f 37//13 38//19 102//82
f 39//23 103//86 102//82
f 39//23 40//27 104//90
f 41//31 105//94 104//90
f 41//31 42//35 106//98
f 43//39 107//102 106//98
f 43//39 44//43 108//106
f 45//47 109//110 108//106
f 45//47 46//51 110//114
f 46//51 47//57 111//120
f 47//57 48//62 112//126
f 49//2 113//65 112//126
f 49//2 50//11 114//74
f 51//17 115//80 114//74
f 51//17 52//21 116//84
f 53//25 117//88 116//84
f 53//25 54//29 118//92
f 55//33 119//96 118//92
f 55//33 56//37 120//100
f 57//41 121//104 120//100
f 57//41 58//45 122//108
f 59//49 123//112 122//108
f 59//49 60//55 124//118
f 61//61 125//124 124//118
f 61//61 62//64 126//128
f 63//8 127//71 126//128
f 63//8 64//15 128//78
f 64//15 33//53 97//116
