# Blender v2.78 (sub 0) OBJ File: ''
# www.blender.org
v 0.060000 0.000000 0.000000
v 0.058847 0.000000 -0.011705
v 0.055432 0.000000 -0.022960
v 0.049887 0.000000 -0.033334
v 0.042425 0.000000 -0.042425
v 0.033334 0.000000 -0.049887
v 0.022960 0.000000 -0.055432
v 0.011705 0.000000 -0.058847
v 0.000000 0.000000 -0.059998
v -0.011705 0.000000 -0.058847
v -0.022960 0.000000 -0.055432
v -0.033334 0.000000 -0.049887
v -0.042425 0.000000 -0.042425
v -0.049887 0.000000 -0.033334
v -0.055432 0.000000 -0.022960
v -0.058847 0.000000 -0.011705
v -0.059998 0.000000 0.000000
v -0.058847 0.000000 0.011705
v -0.055432 0.000000 0.022960
v -0.049887 0.000000 0.033334
v -0.042425 0.000000 0.042425
v -0.033334 0.000000 0.049887
v -0.022960 0.000000 0.055432
v -0.011705 0.000000 0.058847
v 0.000000 0.000000 0.059998
v 0.011705 0.000000 0.058847
v 0.022960 0.000000 0.055432
v 0.033334 0.000000 0.049887
v 0.042425 0.000000 0.042425
v 0.049887 0.000000 0.033334
v 0.055432 0.000000 0.022960
v 0.058847 0.000000 0.011705
v 0.060000 0.020000 0.000000
v 0.058847 0.020000 -0.011705
v 0.055432 0.020000 -0.022960
v 0.049887 0.020000 -0.033334
v 0.042425 0.020000 -0.042425
v 0.033334 0.020000 -0.049887
v 0.022960 0.020000 -0.055432
v 0.011705 0.020000 -0.058847
v 0.000000 0.020000 -0.059998
v -0.011705 0.020000 -0.058847
v -0.022960 0.020000 -0.055432
v -0.033334 0.020000 -0.049887
v -0.042425 0.020000 -0.042425
v -0.049887 0.020000 -0.033334
v -0.055432 0.020000 -0.022960
v -0.058847 0.020000 -0.011705
v -0.059998 0.020000 0.000000
v -0.058847 0.020000 0.011705
v -0.055432 0.020000 0.022960
v -0.049887 0.020000 0.033334
v -0.042425 0.020000 0.042425
v -0.033334 0.020000 0.049887
v -0.022960 0.020000 0.055432
v -0.011705 0.020000 0.058847
v 0.000000 0.020000 0.059998
v 0.011705 0.020000 0.058847
v 0.022960 0.020000 0.055432
v 0.033334 0.020000 0.049887
v 0.042425 0.020000 0.042425
v 0.049887 0.020000 0.033334
v 0.055432 0.020000 0.022960
v 0.058847 0.020000 0.011705
v 0.010000 0.000000 0.000000
v 0.009808 0.000000 -0.001951
v 0.009239 0.000000 -0.003827
v 0.008315 0.000000 -0.005556
v 0.007071 0.000000 -0.007071
v 0.005556 0.000000 -0.008315
v 0.003827 0.000000 -0.009239
v 0.001951 0.000000 -0.009808
v 0.000000 0.000000 -0.010000
v -0.001951 0.000000 -0.009808
v -0.003827 0.000000 -0.009239
v -0.005556 0.000000 -0.008315
v -0.007071 0.000000 -0.007071
v -0.008315 0.000000 -0.005556
v -0.009239 0.000000 -0.003827
v -0.009808 0.000000 -0.001951
v -0.010000 0.000000 0.000000
v -0.009808 0.000000 0.001951
v -0.009239 0.000000 0.003827
v -0.008315 0.000000 0.005556
v -0.007071 0.000000 0.007071
v -0.005556 0.000000 0.008315
v -0.003827 0.000000 0.009239
v -0.001951 0.000000 0.009808
v 0.000000 0.000000 0.010000
v 0.001951 0.000000 0.009808
v 0.003827 0.000000 0.009239
v 0.005556 0.000000 0.008315
v 0.007071 0.000000 0.007071
v 0.008315 0.000000 0.005556
v 0.009239 0.000000 0.003827
v 0.009808 0.000000 0.001951
v 0.010000 0.020000 0.000000
v 0.009808 0.020000 -0.001951
v 0.009239 0.020000 -0.003827
v 0.008315 0.020000 -0.005556
v 0.007071 0.020000 -0.007071
v 0.005556 0.020000 -0.008315
v 0.003827 0.020000 -0.009239
v 0.001951 0.020000 -0.009808
v 0.000000 0.020000 -0.010000
v -0.001951 0.020000 -0.009808
v -0.003827 0.020000 -0.009239
v -0.005556 0.020000 -0.008315
v -0.007071 0.020000 -0.007071
v -0.008315 0.020000 -0.005556
v -0.009239 0.020000 -0.003827
v -0.009808 0.020000 -0.001951
v -0.010000 0.020000 0.000000
v -0.009808 0.020000 0.001951
v -0.009239 0.020000 0.003827
v -0.008315 0.020000 0.005556
v -0.007071 0.020000 0.007071
v -0.005556 0.020000 0.008315
v -0.003827 0.020000 0.009239
v -0.001951 0.020000 0.009808
v 0.000000 0.020000 0.010000
v 0.001951 0.020000 0.009808
v 0.003827 0.020000 0.009239
v 0.005556 0.020000 0.008315
v 0.007071 0.020000 0.007071
v 0.008315 0.020000 0.005556
v 0.009239 0.020000 0.003827
v 0.009808 0.020000 0.001951
vn -0.5147 -0.6857 -0.5147
vn -0.4044 0.6857 -0.6052
vn -0.4044 -0.6857 -0.6052
vn 0.2785 -0.6857 0.6724
vn 0.1420 0.6857 0.7139
vn 0.1420 -0.6857 0.7139
vn -0.6052 -0.6857 -0.4044
vn -0.5147 0.6857 -0.5147
vn 0.4044 -0.6857 0.6052
vn 0.2785 0.6857 0.6724
vn -0.6724 -0.6857 -0.2785
vn -0.6052 0.6857 -0.4044
vn 0.7139 -0.6857 -0.1420
vn 0.7279 0.6857 0.0000
vn 0.7279 -0.6857 0.0000
vn 0.5147 -0.6857 0.5147
vn 0.4044 0.6857 0.6052
vn -0.7139 -0.6857 -0.1420
vn -0.6724 0.6857 -0.2785
vn 0.6724 -0.6857 -0.2785
vn 0.7139 0.6857 -0.1420
vn 0.6052 -0.6857 0.4044
vn 0.5147 0.6857 0.5147
vn -0.7279 -0.6857 0.0000
vn -0.7139 0.6857 -0.1420
vn 0.6052 -0.6857 -0.4044
vn 0.6724 0.6857 -0.2785
vn 0.6724 -0.6857 0.2785
vn 0.6052 0.6857 0.4044
vn -0.7139 -0.6857 0.1420
vn -0.7279 0.6857 0.0000
vn 0.5147 -0.6857 -0.5147
vn 0.6052 0.6857 -0.4044
vn 0.7139 -0.6857 0.1420
vn 0.6724 0.6857 0.2785
vn -0.6724 -0.6857 0.2785
vn -0.7139 0.6857 0.1420
vn 0.4044 -0.6857 -0.6052
vn 0.5147 0.6857 -0.5147
vn 0.7139 0.6857 0.1420
vn -0.6052 -0.6857 0.4044
vn -0.6724 0.6857 0.2785
vn 0.2785 -0.6857 -0.6724
vn 0.4044 0.6857 -0.6052
vn -0.5147 -0.6857 0.5147
vn -0.6052 0.6857 0.4044
vn 0.1420 -0.6857 -0.7139
vn 0.2785 0.6857 -0.6724
vn -0.4044 -0.6857 0.6052
vn -0.5147 0.6857 0.5147
vn 0.0000 -0.6857 -0.7279
vn 0.1420 0.6857 -0.7139
vn -0.2785 -0.6857 0.6724
vn -0.4044 0.6857 0.6052
vn -0.1420 -0.6857 -0.7139
vn 0.0000 0.6857 -0.7279
vn -0.1420 -0.6857 0.7139
vn -0.2785 0.6857 0.6724
vn -0.2785 -0.6857 -0.6724
vn -0.1420 0.6857 -0.7139
vn 0.0000 -0.6857 0.7279
vn -0.1420 0.6857 0.7139
vn -0.2785 0.6857 -0.6724
vn 0.0000 0.6857 0.7279
vn 0.3798 0.7298 0.5684
vn 0.4834 -0.7298 0.4834
vn 0.3798 -0.7298 0.5684
vn -0.1334 0.7298 -0.6705
vn -0.2616 -0.7298 -0.6316
vn -0.1334 -0.7298 -0.6705
vn 0.4834 0.7298 0.4834
vn 0.5684 -0.7298 0.3798
vn -0.2616 0.7298 -0.6316
vn -0.3798 -0.7298 -0.5684
vn 0.5684 0.7298 0.3798
vn 0.6316 -0.7298 0.2616
vn -0.6836 0.7298 0.0000
vn -0.6705 -0.7298 0.1333
vn -0.6836 -0.7298 0.0000
vn -0.3798 0.7298 -0.5684
vn -0.4834 -0.7298 -0.4834
vn 0.6316 0.7298 0.2616
vn 0.6705 -0.7298 0.1333
vn -0.6705 0.7298 0.1334
vn -0.6316 -0.7298 0.2616
vn -0.4834 0.7298 -0.4834
vn -0.5684 -0.7298 -0.3798
vn 0.6705 0.7298 0.1333
vn 0.6836 -0.7298 0.0000
vn -0.6316 0.7298 0.2616
vn -0.5684 -0.7298 0.3798
vn -0.5684 0.7298 -0.3798
vn -0.6316 -0.7298 -0.2616
vn 0.6836 0.7298 0.0000
vn 0.6705 -0.7298 -0.1334
vn -0.5684 0.7298 0.3798
vn -0.4834 -0.7298 0.4834
vn -0.6316 0.7298 -0.2616
vn -0.6705 -0.7298 -0.1333
vn 0.6705 0.7298 -0.1334
vn 0.6316 -0.7298 -0.2616
vn -0.4834 0.7298 0.4834
vn -0.3798 -0.7298 0.5684
vn -0.6705 0.7298 -0.1333
vn 0.6316 0.7298 -0.2616
vn 0.5684 -0.7298 -0.3798
vn -0.3798 0.7298 0.5684
vn -0.2616 -0.7298 0.6316
vn 0.5684 0.7298 -0.3798
vn 0.4834 -0.7298 -0.4834
vn -0.2616 0.7298 0.6316
vn -0.1333 -0.7298 0.6705
vn 0.4834 0.7298 -0.4834
vn 0.3798 -0.7298 -0.5684
vn -0.1333 0.7298 0.6705
vn 0.0000 -0.7298 0.6836
vn 0.3798 0.7298 -0.5684
vn 0.2616 -0.7298 -0.6316
vn 0.0000 0.7298 0.6836
vn 0.1333 -0.7298 0.6705
vn 0.2616 0.7298 -0.6316
vn 0.1333 -0.7298 -0.6705
vn 0.1333 0.7298 0.6705
vn 0.2616 -0.7298 0.6316
vn 0.1333 0.7298 -0.6705
vn 0.0000 -0.7298 -0.6836
vn 0.2616 0.7298 0.6316
vn 0.0000 0.7298 -0.6836
s 1
f 13//1 44//2 12//3
f 27//4 58//5 26//6
f 14//7 45//8 13//1
f 28//9 59//10 27//4
f 15//11 46//12 14//7
f 2//13 33//14 1//15
f 29//16 60//17 28//9
f 16//18 47//19 15//11
f 3//20 34//21 2//13
f 30//22 61//23 29//16
f 17//24 48//25 16//18
f 4//26 35//27 3//20
f 31//28 62//29 30//22
f 18//30 49//31 17//24
f 5//32 36//33 4//26
f 32//34 63//35 31//28
f 19//36 50//37 18//30
f 6//38 37//39 5//32
f 1//15 64//40 32//34
f 20//41 51//42 19//36
f 7//43 38//44 6//38
f 21//45 52//46 20//41
f 8//47 39//48 7//43
f 22//49 53//50 21//45
f 9//51 40//52 8//47
f 23//53 54//54 22//49
f 10//55 41//56 9//51
f 24//57 55//58 23//53
f 11//59 42//60 10//55
f 25//61 56//62 24//57
f 12//3 43//63 11//59
f 26//6 57//64 25//61
f 108//65 77//66 76//67
f 122//68 91//69 90//70
f 109//71 78//72 77//66
f 123//73 92//74 91//69
f 110//75 79//76 78//72
f 97//77 66//78 65//79
f 124//80 93//81 92//74
f 111//82 80//83 79//76
f 98//84 67//85 66//78
f 125//86 94//87 93//81
f 112//88 81//89 80//83
f 99//90 68//91 67//85
f 126//92 95//93 94//87
f 113//94 82//95 81//89
f 100//96 69//97 68//91
f 127//98 96//99 95//93
f 114//100 83//101 82//95
f 101//102 70//103 69//97
f 128//104 65//79 96//99
f 115//105 84//106 83//101
f 102//107 71//108 70//103
f 116//109 85//110 84//106
f 103//111 72//112 71//108
f 117//113 86//114 85//110
f 104//115 73//116 72//112
f 118//117 87//118 86//114
f 105//119 74//120 73//116
f 119//121 88//122 87//118
f 106//123 75//124 74//120
f 120//125 89//126 88//122
f 107//127 76//67 75//124
f 121//128 90//70 89//126
f 2//13 65//79 66//78
f 3//20 66//78 67//85
f 3//20 68//91 4//26
f 5//32 68//91 69//97
f 5//32 70//103 6//38
f 7//43 70//103 71//108
f 7//43 72//112 8//47
f 9//51 72//112 73//116
f 9//51 74//120 10//55
f 11//59 74//120 75//124
f 11//59 76//67 12//3
f 13//1 76//67 77//66
f 13//1 78//72 14//7
f 14//7 79//76 15//11
f 15//11 80//83 16//18
f 17//24 80//83 81//89
f 17//24 82//95 18//30
f 19//36 82//95 83//101
f 19//36 84//106 20//41
f 21//45 84//106 85//110
f 21//45 86//114 22//49
f 23//53 86//114 87//118
f 23//53 88//122 24//57
f 25//61 88//122 89//126
f 25//61 90//70 26//6
f 27//4 90//70 91//69
f 27//4 92//74 28//9
f 29//16 92//74 93//81
f 29//16 94//87 30//22
f 30//22 95//93 31//28
f 31//28 96//99 32//34
f 32//34 65//79 1//15
f 34//21 97//77 33//14
f 35//27 98//84 34//21
f 36//33 99//90 35//27
f 37//39 100//96 36//33
f 37//39 102//107 101//102
f 39//48 102//107 38//44
f 39//48 104//115 103//111
f 41//56 104//115 40//52
f 41//56 106//123 105//119
f 43//63 106//123 42//60
f 43//63 108//65 107//127
f 45//8 108//65 44//2
f 45//8 110//75 109//71
f 47//19 110//75 46//12
f 47//19 112//88 111//82
f 49//31 112//88 48//25
f 49//31 114//100 113//94
f 51//42 114//100 50//37
f 51//42 116//109 115//105
f 53//50 116//109 52//46
f 53//50 118//117 117//113
f 55//58 118//117 54//54
f 55//58 120//125 119//121
f 57//64 120//125 56//62
f 57//64 122//68 121//128
f 59//10 122//68 58//5
f 59//10 124//80 123//73
f 61//23 124//80 60//17
f 61//23 126//92 125//86
f 63//35 126//92 62//29
f 63//35 128//104 127//98
f 64//40 97//77 128//104
f 13//1 45//8 44//2
f 27//4 59//10 58//5
f 14//7 46//12 45//8
f 28//9 60//17 59//10
f 15//11 47//19 46//12
f 2//13 34//21 33//14
f 29//16 61//23 60//17
f 16//18 48//25 47//19
f 3//20 35//27 34//21
f 30//22 62//29 61//23
f 17//24 49//31 48//25
f 4//26 36//33 35//27
f 31//28 63//35 62//29
f 18//30 50//37 49//31
f 5//32 37//39 36//33
f 32//34 64//40 63//35
f 19//36 51//42 50//37
f 6//38 38//44 37//39
f 1//15 33//14 64//40
f 20//41 52//46 51//42
f 7//43 39//48 38//44
f 21//45 53//50 52//46
f 8//47 40//52 39//48
f 22//49 54//54 53//50
f 9//51 41//56 40//52
f 23//53 55//58 54//54
f 10//55 42//60 41//56
f 24//57 56//62 55//58
f 11//59 43//63 42//60
f 25//61 57//64 56//62
f 12//3 44//2 43//63
f 26//6 58//5 57//64
f 108//65 109//71 77//66
f 122//68 123//73 91//69
f 109//71 110//75 78//72
f 123//73 124//80 92//74
f 110//75 111//82 79//76
f 97//77 98//84 66//78
f 124//80 125//86 93//81
f 111//82 112//88 80//83
f 98//84 99//90 67//85
f 125//86 126//92 94//87
f 112//88 113//94 81//89
f 99//90 100//96 68//91
f 126//92 127//98 95//93
f 113//94 114//100 82//95
f 100//96 101//102 69//97
f 127//98 128//104 96//99
f 114//100 115//105 83//101
f 101//102 102//107 70//103
f 128//104 97//77 65//79
f 115//105 116//109 84//106
f 102//107 103//111 71//108
f 116//109 117//113 85//110
f 103//111 104//115 72//112
f 117//113 118//117 86//114
f 104//115 105//119 73//116
f 118//117 119//121 87//118
f 105//119 106//123 74//120
f 119//121 120//125 88//122
f 106//123 107//127 75//124
f 120//125 121//128 89//126
f 107//127 108//65 76//67
f 121//128 122//68 90//70
f 2//13 1//15 65//79
f 3//20 2//13 66//78
f 3//20 67//85 68//91
f 5//32 4//26 68//91
f 5//32 69//97 70//103
f 7//43 6//38 70//103
f 7//43 71//108 72//112
f 9//51 8//47 72//112
f 9//51 73//116 74//120
f 11//59 10//55 74//120
f 11//59 75//124 76//67
f 13//1 12//3 76//67
f 13//1 77//66 78//72
f 14//7 78//72 79//76
f 15//11 79//76 80//83
f 17//24 16//18 80//83
f 17//24 81//89 82//95
f 19//36 18//30 82//95
f 19//36 83//101 84//106
f 21//45 20//41 84//106
f 21//45 85//110 86//114
f 23//53 22//49 86//114
f 23//53 87//118 88//122
f 25//61 24//57 88//122
f 25//61 89//126 90//70
f 27//4 26//6 90//70
f 27//4 91//69 92//74
f 29//16 28//9 92//74
f 29//16 93//81 94//87
f 30//22 94//87 95//93
f 31//28 95//93 96//99
f 32//34 96//99 65//79
f 34//21 98//84 97//77
f 35//27 99//90 98//84
f 36//33 100//96 99//90
f 37//39 101//102 100//96
f 37//39 38//44 102//107
f 39//48 103//111 102//107
f 39//48 40//52 104//115
f 41//56 105//119 104//115
f 41//56 42//60 106//123
f 43//63 107//127 106//123
f 43//63 44//2 108//65
f 45//8 109//71 108//65
f 45//8 46//12 110//75
f 47//19 111//82 110//75
f 47//19 48//25 112//88
f 49//31 113//94 112//88
f 49//31 50//37 114//100
f 51//42 115//105 114//100
f 51//42 52//46 116//109
f 53//50 117//113 116//109
f 53//50 54//54 118//117
f 55//58 119//121 118//117
f 55//58 56//62 120//125
f 57//64 121//128 120//125
f 57//64 58//5 122//68
f 59//10 123//73 122//68
f 59//10 60//17 124//80
f 61//23 125//86 124//80
f 61//23 62//29 126//92
f 63//35 127//98 126//92
f 63//35 64//40 128//104
f 64//40 33//14 97//77
